<svg width="31" height="30" viewBox="0 0 31 30" fill="none" xmlns="http://www.w3.org/2000/svg">
<g clip-path="url(#clip0_2006_33)">
<path d="M26.5 0H4.5C2.29086 0 0.5 1.79086 0.5 4V26C0.5 28.2091 2.29086 30 4.5 30H26.5C28.7091 30 30.5 28.2091 30.5 26V4C30.5 1.79086 28.7091 0 26.5 0Z" fill="#FFEEDB"/>
<path fill-rule="evenodd" clip-rule="evenodd" d="M3.80416 16.774C3.7429 16.5979 3.83599 16.4053 4.01205 16.3429C12.3051 13.4561 19.5658 9.20983 25.611 3.72649L23.892 3.81994C23.7068 3.82951 23.5464 3.6873 23.5362 3.50021C23.5261 3.31458 23.6689 3.15453 23.8552 3.14496L26.5204 3H26.5561C26.6442 3.0046 26.7281 3.04397 26.7879 3.10964C26.8563 3.18433 26.8876 3.2857 26.8727 3.38633L26.488 6.02773C26.4635 6.19588 26.3191 6.31638 26.1543 6.31638C26.1381 6.31638 26.1219 6.31509 26.1052 6.31233C25.9205 6.2851 25.7928 6.11457 25.8195 5.93023L26.0678 4.22396C19.9548 9.76993 12.6154 14.0636 4.23384 16.9817C4.19704 16.9951 4.1597 17.0006 4.12254 17.0006C3.98309 17.0006 3.8529 16.9136 3.80416 16.774ZM28.1093 27.3238V9.85891H25.5455V27.3238H28.1093ZM28.4472 9.18262H25.2079C25.0214 9.18262 24.87 9.33421 24.87 9.52002V27.6612C24.87 27.8483 25.021 27.9986 25.2079 27.9986H28.4472C28.6339 27.9986 28.7852 27.8482 28.7852 27.6612V9.52002C28.7852 9.3344 28.6338 9.18262 28.4472 9.18262ZM21.081 27.3238V13.5305H18.5172V27.3238H21.081ZM21.4189 12.8542H18.1795C17.9929 12.8542 17.8415 13.0062 17.8415 13.1918V27.6614C17.8415 27.8485 17.9929 27.9988 18.1795 27.9988H21.4187C21.6053 27.9988 21.7567 27.8483 21.7567 27.6614L21.7565 13.1918C21.7569 13.0062 21.6055 12.8542 21.4189 12.8542ZM14.0527 27.3238V16.4985H11.4889V27.3234L14.0527 27.3238ZM14.3907 15.824H11.1514C10.9648 15.824 10.8134 15.9745 10.8134 16.1614V27.6612C10.8134 27.8483 10.9648 27.9986 11.1514 27.9986H14.3907C14.5772 27.9986 14.7286 27.8482 14.7286 27.6612V16.1614C14.7286 15.9743 14.5772 15.824 14.3907 15.824ZM7.02444 27.3238H4.46103V20.8727H7.02482L7.02444 27.3238ZM7.36239 20.1973H4.12311C3.93638 20.1973 3.78516 20.3478 3.78516 20.5349V27.6614C3.78516 27.8485 3.93619 27.9988 4.12311 27.9988H7.36239C7.54893 27.9988 7.70034 27.8483 7.70034 27.6614V20.5349C7.70034 20.3478 7.54893 20.1973 7.36239 20.1973Z" fill="#DBA362" fill-opacity="0.8"/>
<path d="M7.46191 20.0977V20.1094C7.65554 20.1543 7.80078 20.3269 7.80078 20.5352V27.6611C7.80078 27.9036 7.60379 28.0986 7.3623 28.0986H4.12305C3.88118 28.0986 3.68555 27.9037 3.68555 27.6611V20.5352C3.68555 20.2926 3.88133 20.0977 4.12305 20.0977H7.46191ZM14.3906 15.7236C14.632 15.7236 14.828 15.9186 14.8281 16.1611V27.6611C14.8281 27.9036 14.6321 28.0986 14.3906 28.0986H11.1514C10.9099 28.0986 10.7139 27.9038 10.7139 27.6611V16.1611C10.714 15.9189 10.91 15.7236 11.1514 15.7236H14.3906ZM21.4189 12.7539L21.5068 12.7627C21.7064 12.8035 21.8566 12.9806 21.8564 13.1914V27.6611L21.8477 27.75C21.8067 27.9496 21.6301 28.0985 21.4189 28.0986H18.1797C17.9382 28.0986 17.7412 27.9038 17.7412 27.6611V13.1914C17.7414 12.9508 17.938 12.7539 18.1797 12.7539H21.4189ZM28.4473 9.08301C28.6888 9.08304 28.8845 9.27889 28.8848 9.51953V27.6611C28.8848 27.9035 28.6889 28.0986 28.4473 28.0986H25.208C24.9661 28.0986 24.7695 27.9037 24.7695 27.6611V9.51953C24.7698 9.27865 24.9665 9.08301 25.208 9.08301H28.4473ZM25.6455 27.2236H28.0088V9.95898H25.6455V27.2236ZM18.6172 27.2236H20.9814V13.6309H18.6172V27.2236ZM11.5889 27.2236H13.9531V16.5986H11.5889V27.2236ZM4.56055 27.2236H6.9248V20.9727H4.56055V27.2236ZM26.5205 2.90039H26.5615L26.6455 2.91309C26.7279 2.93393 26.8041 2.97804 26.8623 3.04199H26.8613C26.9501 3.13883 26.991 3.27086 26.9717 3.40137L26.5869 6.04199C26.5552 6.26021 26.3679 6.41601 26.1543 6.41602C26.1327 6.41602 26.111 6.41478 26.0889 6.41113C25.851 6.37505 25.6862 6.15461 25.7207 5.91602L25.9287 4.48145C19.8462 9.94761 12.5666 14.1865 4.2666 17.0762L4.26562 17.0752C4.21708 17.0926 4.16861 17.1006 4.12207 17.1006C3.96436 17.1004 3.81547 17.0145 3.73828 16.8721L3.70996 16.8066L3.68652 16.7402L3.69336 16.7344C3.65881 16.5279 3.77488 16.3213 3.97852 16.249L3.97949 16.248L4.75293 15.9746C12.6174 13.1343 19.5292 9.0525 25.332 3.84082L23.8975 3.91992C23.6877 3.93075 23.5021 3.79124 23.4502 3.59375L23.4365 3.50586C23.4234 3.26548 23.6079 3.05761 23.8496 3.04492L26.5146 2.90039H26.5205Z" stroke="#DBA362" stroke-opacity="0.8" stroke-width="0.2"/>
</g>
<defs>
<clipPath id="clip0_2006_33">
<rect width="31" height="30" fill="white"/>
</clipPath>
</defs>
</svg>
