<svg width="31" height="30" viewBox="0 0 31 30" fill="none" xmlns="http://www.w3.org/2000/svg">
<g clip-path="url(#clip0_2006_53)">
<path d="M26.5 0H4.5C2.29086 0 0.5 1.79086 0.5 4V26C0.5 28.2091 2.29086 30 4.5 30H26.5C28.7091 30 30.5 28.2091 30.5 26V4C30.5 1.79086 28.7091 0 26.5 0Z" fill="#FFEEDB"/>
<path d="M23.9385 2.90039L24.1504 2.91309C24.5696 2.96531 24.9582 3.17126 25.251 3.48828L25.3896 3.65527L25.3906 3.65625L27.9512 7.23047L28.0645 7.38867H28.0078C28.0112 7.41816 28.0109 7.44945 28 7.48242V24.9795L27.9912 25.1445C27.9079 25.9597 27.214 26.6287 26.3516 26.6289H4.46094C3.54189 26.6289 2.8125 25.8983 2.8125 24.9795V7.46777C2.8125 7.38002 2.85495 7.29791 2.88184 7.24414L2.88574 7.2373L2.89062 7.23047L5.44922 3.65918L5.58008 3.49023C5.90951 3.11681 6.40711 2.90039 6.90332 2.90039H23.9385ZM3.60742 24.9795C3.60742 25.4328 3.98218 25.833 4.46094 25.833H26.3809C26.8341 25.833 27.2344 25.4583 27.2344 24.9795V7.86523H19.0947V12.8584L19.0889 12.9492C19.0597 13.1607 18.9315 13.3585 18.7529 13.4775L18.7451 13.4824L18.7363 13.4863C18.513 13.5819 18.2689 13.6219 18.0225 13.4814L15.4209 12.0781L12.8174 13.4824C12.7111 13.5505 12.5767 13.5839 12.4727 13.584C12.3388 13.584 12.1983 13.5506 12.0889 13.4775C11.8873 13.343 11.7471 13.135 11.7471 12.8584V7.86523H3.60742V24.9795ZM12.543 7.54102V12.7803L15.373 11.2217L15.4209 11.1953L15.4688 11.2217L18.2988 12.751V7.50977L17.2217 3.69531H13.6504L12.543 7.54102ZM19.0107 7.06934H26.8711L24.751 4.10059C24.5835 3.8874 24.334 3.73721 24.0586 3.70312L23.9395 3.69531H18.0557L19.0107 7.06934ZM6.90332 3.69531C6.57443 3.69531 6.27946 3.83171 6.0918 4.09961L6.09082 4.10059L3.9707 7.06934H11.8613L12.8164 3.69531H6.90332Z" fill="#DBA362" stroke="#DBA362" stroke-width="0.2"/>
<path d="M17.9033 7.06982V7.86475H12.9385V7.06982H17.9033Z" fill="#DBA362" stroke="#DBA362" stroke-width="0.2"/>
</g>
<defs>
<clipPath id="clip0_2006_53">
<rect width="31" height="30" fill="white"/>
</clipPath>
</defs>
</svg>
